<?xml version="1.0" encoding="UTF-8" standalone="no"?>
<!-- Created with Inkscape (http://www.inkscape.org/) -->

<svg
   xmlns:dc="http://purl.org/dc/elements/1.1/"
   xmlns:cc="http://creativecommons.org/ns#"
   xmlns:rdf="http://www.w3.org/1999/02/22-rdf-syntax-ns#"
   xmlns:svg="http://www.w3.org/2000/svg"
   xmlns="http://www.w3.org/2000/svg"
   xmlns:sodipodi="http://sodipodi.sourceforge.net/DTD/sodipodi-0.dtd"
   xmlns:inkscape="http://www.inkscape.org/namespaces/inkscape"
   width="247.93118"
   height="54.26799"
   viewBox="0 0 65.598456 14.358405"
   version="1.1"
   id="svg9698"
   inkscape:version="0.92.0 r15299"
   sodipodi:docname="ch robinson.svg">
  <defs
     id="defs9692">
    <clipPath
       id="clipPath9133"
       clipPathUnits="userSpaceOnUse">
      <path
         inkscape:connector-curvature="0"
         id="path9131"
         d="M 35.96,36.346 H 230 V 78.569 H 35.96 Z" />
    </clipPath>
  </defs>
  <sodipodi:namedview
     id="base"
     pagecolor="#ffffff"
     bordercolor="#666666"
     borderopacity="1.0"
     inkscape:pageopacity="0.0"
     inkscape:pageshadow="2"
     inkscape:zoom="3.0998828"
     inkscape:cx="117.205"
     inkscape:cy="24.11985"
     inkscape:document-units="mm"
     inkscape:current-layer="layer1"
     showgrid="false"
     fit-margin-top="0"
     fit-margin-left="0"
     fit-margin-right="0"
     fit-margin-bottom="0"
     units="px"
     inkscape:window-width="1280"
     inkscape:window-height="744"
     inkscape:window-x="-4"
     inkscape:window-y="-4"
     inkscape:window-maximized="1" />
  <metadata
     id="metadata9695">
    <rdf:RDF>
      <cc:Work
         rdf:about="">
        <dc:format>image/svg+xml</dc:format>
        <dc:type
           rdf:resource="http://purl.org/dc/dcmitype/StillImage" />
        <dc:title></dc:title>
      </cc:Work>
    </rdf:RDF>
  </metadata>
  <g
     inkscape:label="Layer 1"
     inkscape:groupmode="layer"
     id="layer1"
     transform="translate(-51.952143,-196.79712)">
    <g
       id="g10122"
       transform="translate(0.2645859,-0.26457705)">
      <g
         id="g10099">
        <path
           inkscape:connector-curvature="0"
           id="path9109"
           style="fill:#27adea;fill-opacity:1;fill-rule:nonzero;stroke:none;stroke-width:0.35277778"
           d="m 56.357953,200.6177 1.287992,-0.74366 v 3.0981 l 0.293864,0.16968 0.294569,-0.17003 v -3.09775 l 1.287992,0.74366 0.294216,-0.50941 -1.876425,-1.08338 -1.876425,1.08338 z" />
        <path
           inkscape:connector-curvature="0"
           id="path9113"
           style="fill:#27adea;fill-opacity:1;fill-rule:nonzero;stroke:none;stroke-width:0.35277778"
           d="m 55.593624,207.42278 -1.287992,-0.74366 2.682875,-1.54904 v -0.33937 l -0.294216,-0.17004 -2.682875,1.54869 v -1.48731 h -0.588434 v 2.16676 l 1.876425,1.08338 z" />
        <path
           inkscape:connector-curvature="0"
           id="path9117"
           style="fill:#27adea;fill-opacity:1;fill-rule:nonzero;stroke:none;stroke-width:0.35277778"
           d="m 57.940193,197.32628 -5.98805,3.45722 v 6.9148 l 5.98805,3.45722 5.98805,-3.45722 v -6.9148 z m -5.399617,10.03229 v -6.23534 l 5.399617,-3.1175 5.399617,3.1175 v 6.23534 l -5.399617,3.1175 z" />
        <path
           inkscape:connector-curvature="0"
           id="path9121"
           style="fill:#27adea;fill-opacity:1;fill-rule:nonzero;stroke:none;stroke-width:0.35277778"
           d="m 60.286803,201.05908 1.287992,0.74366 -3.63467,2.09867 -3.634669,-2.09867 1.287992,-0.74366 -0.293864,-0.50941 -1.876425,1.08303 v 2.16676 h 0.58808 v -1.48731 l 3.635022,2.09867 -3.52e-4,4.197 -1.287992,-0.74366 -0.294217,0.50941 1.876425,1.08338 1.876425,-1.08338 -0.294216,-0.50941 -1.287992,0.74366 v -4.19735 l 3.634669,-2.09832 v 1.48731 h 0.588434 v -2.16676 l -1.876425,-1.08303 z" />
        <path
           inkscape:connector-curvature="0"
           id="path9125"
           style="fill:#27adea;fill-opacity:1;fill-rule:nonzero;stroke:none;stroke-width:0.35277778"
           d="m 61.869014,204.68218 v 1.48731 l -2.682875,-1.54905 -0.294217,0.16969 v 0.34008 l 2.682875,1.54904 -1.287991,0.74331 0.294216,0.50976 1.876425,-1.08338 v -2.16676 z" />
        <path
           inkscape:connector-curvature="0"
           id="path9137"
           style="fill:#27adea;fill-opacity:1;fill-rule:nonzero;stroke:none;stroke-width:0.35277778"
           d="m 63.48346,208.71695 h 0.06773 c 0.01482,0 0.02893,-7.1e-4 0.04304,-0.001 0.01376,-0.001 0.02611,-0.004 0.03669,-0.008 0.01094,-0.005 0.0194,-0.012 0.02611,-0.0219 0.0067,-0.0102 0.0099,-0.024 0.0099,-0.0409 0,-0.0148 -0.0028,-0.0268 -0.0088,-0.0356 -0.006,-0.009 -0.01376,-0.0155 -0.02293,-0.0205 -0.0095,-0.005 -0.01976,-0.007 -0.03104,-0.009 -0.01129,-0.001 -0.02258,-0.002 -0.03387,-0.002 h -0.08678 z m -0.06597,-0.19367 h 0.163688 c 0.100895,0 0.151695,0.0413 0.151695,0.12382 0,0.0392 -0.01129,0.0681 -0.03281,0.0864 -0.02222,0.018 -0.04939,0.0289 -0.08185,0.0321 l 0.124531,0.19156 h -0.07091 l -0.117475,-0.18627 h -0.07091 v 0.18627 h -0.06597 z" />
        <path
           inkscape:connector-curvature="0"
           id="path9141"
           style="fill:#27adea;fill-opacity:1;fill-rule:nonzero;stroke:none;stroke-width:0.35277778"
           d="m 63.559272,208.37479 c -0.201789,0 -0.366183,0.16404 -0.366183,0.36583 0,0.20179 0.164394,0.36618 0.366183,0.36618 0.201789,0 0.365831,-0.16439 0.365831,-0.36618 0,-0.20179 -0.164042,-0.36583 -0.365831,-0.36583 m 0,0.8061 c -0.242711,0 -0.440267,-0.19756 -0.440267,-0.44027 0,-0.24271 0.197556,-0.43991 0.440267,-0.43991 0.242711,0 0.440267,0.1972 0.440267,0.43991 0,0.24271 -0.197556,0.44027 -0.440267,0.44027" />
      </g>
      <g
         id="g10090">
        <path
           inkscape:connector-curvature="0"
           id="path9147"
           style="fill:#000000;fill-opacity:1;fill-rule:nonzero;stroke:none;stroke-width:0.35277778"
           d="m 73.911465,206.00099 c -0.207433,0.2794 -0.566561,0.66216 -1.013531,0.66216 h -0.997655 c -0.175331,0 -0.366889,-0.0635 -0.494595,-0.14358 -0.167569,-0.0956 -0.486833,-0.42298 -0.582436,-0.56656 -0.09596,-0.14358 -0.127705,-0.30303 -0.127705,-0.45473 v -2.51389 c 0,-0.15134 0.03175,-0.30304 0.127705,-0.44662 0.0956,-0.13582 0.414867,-0.47907 0.582436,-0.57467 0.127706,-0.072 0.319264,-0.14358 0.494595,-0.14358 h 0.997655 c 0.44697,0 0.806098,0.39087 1.013531,0.66216 0.06385,0.0878 0.0956,0.15169 0.167569,0.2794 l -0.813858,0.23142 c 0,0 -0.239536,-0.29527 -0.359128,-0.36724 -0.0081,-0.008 -0.02399,-0.008 -0.0321,-0.008 h -0.941564 c -0.01588,0 -0.0321,0.008 -0.0321,0.008 -0.103364,0.0561 -0.279047,0.22366 -0.358775,0.35137 -0.0081,0.0159 -0.0081,0.0716 -0.0081,0.0875 v 2.42605 c 0,0.0959 0.247297,0.30339 0.366889,0.36724 0.0081,0.008 0.04798,0.008 0.05609,0.008 h 0.909813 c 0.0078,0 0.02399,0 0.03986,-0.008 0.16757,-0.0797 0.359128,-0.375 0.359128,-0.375 l 0.813858,0.21519 c -0.06385,0.14393 -0.103716,0.21555 -0.167569,0.30339" />
        <path
           d="m 74.813412,205.61804 h 0.981428 v 1.00542 h -0.981428 z"
           style="fill:#000000;fill-opacity:1;fill-rule:nonzero;stroke:none;stroke-width:0.35277778"
           id="path9149"
           inkscape:connector-curvature="0" />
        <path
           inkscape:connector-curvature="0"
           id="path9153"
           style="fill:#000000;fill-opacity:1;fill-rule:nonzero;stroke:none;stroke-width:0.35277778"
           d="m 79.21047,206.62339 v -1.97097 h -1.739547 v 1.97097 h -0.837847 v -4.77202 h 0.837847 v 2.00307 h 1.739547 v -2.00307 h 0.837847 v 4.77202 z" />
        <path
           d="m 80.886482,205.61804 h 0.981427 v 1.00542 h -0.981427 z"
           style="fill:#000000;fill-opacity:1;fill-rule:nonzero;stroke:none;stroke-width:0.35277778"
           id="path9155"
           inkscape:connector-curvature="0" />
        <path
           inkscape:connector-curvature="0"
           id="path9159"
           style="fill:#000000;fill-opacity:1;fill-rule:nonzero;stroke:none;stroke-width:0.35277778"
           d="m 87.071064,202.96057 c 0,0 0,-0.0399 -0.0081,-0.0557 -0.04762,-0.0878 -0.17533,-0.24765 -0.255058,-0.25541 h -1.444625 v 1.29258 h 1.404408 c 0.07197,0 0.231422,-0.1517 0.295275,-0.26317 0,0 0.0081,-0.0159 0.0081,-0.0321 z m 0.694267,1.1811 c -0.07197,0.10372 -0.319264,0.34325 -0.431095,0.42298 -0.0635,0.0476 -0.135466,0.0878 -0.207433,0.11148 l 0.949678,1.94733 h -0.909814 l -0.885472,-1.88348 h -0.917928 v 1.88348 H 84.52542 v -4.77202 h 2.242255 c 0.191558,0 0.407106,0.0639 0.566561,0.17533 0.111831,0.0801 0.359128,0.33514 0.431095,0.43921 0.0956,0.14358 0.14358,0.31891 0.14358,0.48648 v 0.70238 c 0,0.17568 -0.04798,0.34325 -0.14358,0.48683" />
        <path
           inkscape:connector-curvature="0"
           id="path9163"
           style="fill:#000000;fill-opacity:1;fill-rule:nonzero;stroke:none;stroke-width:0.35277778"
           d="m 89.688745,205.48226 c 0,0 0,0.024 0.0081,0.0318 0.0956,0.14393 0.263172,0.29527 0.351014,0.34325 0.01588,0.008 0.03175,0.008 0.03986,0.008 h 1.148997 c 0,0 0.02399,0 0.03986,-0.008 0.08784,-0.048 0.255411,-0.19932 0.351366,-0.34325 0.0078,-0.0159 0.0078,-0.0318 0.0078,-0.0318 v -2.46592 c 0,0 0,-0.0318 -0.0078,-0.0399 -0.09596,-0.14358 -0.263525,-0.30339 -0.351366,-0.35101 -0.01588,-0.008 -0.03175,-0.008 -0.03986,-0.008 h -1.148997 c 0,0 -0.03175,0 -0.03986,0.008 -0.08784,0.0476 -0.255411,0.20743 -0.351014,0.35101 -0.0081,0.0159 -0.0081,0.0399 -0.0081,0.0399 z m 2.657475,0.46284 c -0.10407,0.13582 -0.415219,0.47872 -0.582789,0.57468 -0.127705,0.0797 -0.327025,0.14358 -0.494594,0.14358 h -1.21285 c -0.175684,0 -0.367242,-0.0639 -0.494948,-0.14358 -0.167569,-0.096 -0.486833,-0.43886 -0.582436,-0.57468 -0.09596,-0.14358 -0.127705,-0.30338 -0.127705,-0.45473 v -2.49802 c 0,-0.15134 0.03175,-0.31115 0.127705,-0.45473 0.0956,-0.13546 0.414867,-0.47872 0.582436,-0.57467 0.127706,-0.0797 0.319264,-0.14358 0.494948,-0.14358 h 1.21285 c 0.167569,0 0.366889,0.0639 0.494594,0.14358 0.16757,0.0959 0.478719,0.43921 0.582789,0.57467 0.0956,0.14358 0.127705,0.30339 0.127705,0.45473 v 2.49802 c 0,0.15135 -0.0321,0.31115 -0.127705,0.45473" />
        <path
           inkscape:connector-curvature="0"
           id="path9167"
           style="fill:#000000;fill-opacity:1;fill-rule:nonzero;stroke:none;stroke-width:0.35277778"
           d="m 96.041038,205.50618 v -0.56656 c 0,-0.024 -0.0081,-0.0399 -0.0081,-0.0399 -0.07161,-0.12771 -0.223308,-0.27129 -0.295275,-0.27129 h -1.396294 v 1.19697 h 1.404408 c 0.07197,0 0.231422,-0.14358 0.287161,-0.26352 0,0 0.0081,-0.024 0.0081,-0.0557 m 0,-1.97097 v -0.56656 c 0,-0.0159 -0.0081,-0.0399 -0.0081,-0.0399 -0.07161,-0.12771 -0.223308,-0.2794 -0.295275,-0.2794 h -1.396294 v 1.20508 h 1.404408 c 0.07197,0 0.231422,-0.14393 0.287161,-0.26352 0,0 0.0081,-0.0159 0.0081,-0.0557 m 0.702381,2.48179 c -0.07197,0.10372 -0.311503,0.35102 -0.422981,0.43074 -0.159808,0.11183 -0.383117,0.17569 -0.574675,0.17569 h -2.242255 v -4.77203 h 2.242255 c 0.207433,0 0.414867,0.0716 0.574675,0.18345 0.111478,0.0797 0.351014,0.32702 0.422981,0.43109 0.103716,0.15134 0.135466,0.33514 0.135466,0.4946 v 0.59055 c 0,0.33513 -0.127705,0.51082 -0.31115,0.69426 0.183445,0.18345 0.31115,0.35102 0.31115,0.68616 v 0.60642 c 0,0.16792 -0.03986,0.33549 -0.135466,0.47907" />
        <path
           d="m 98.012431,201.85144 h 0.837847 v 4.77202 h -0.837847 z"
           style="fill:#000000;fill-opacity:1;fill-rule:nonzero;stroke:none;stroke-width:0.35277778"
           id="path9169"
           inkscape:connector-curvature="0" />
        <path
           inkscape:connector-curvature="0"
           id="path9173"
           style="fill:#000000;fill-opacity:1;fill-rule:nonzero;stroke:none;stroke-width:0.35277778"
           d="m 102.56898,206.62339 -1.65171,-3.16794 v 3.16794 h -0.8382 v -4.77202 h 0.90206 l 1.63583,3.2078 v -3.2078 h 0.83784 v 4.77202 z" />
        <path
           inkscape:connector-curvature="0"
           id="path9177"
           style="fill:#000000;fill-opacity:1;fill-rule:nonzero;stroke:none;stroke-width:0.35277778"
           d="m 107.96366,205.94511 c -0.0956,0.14358 -0.41487,0.47872 -0.58244,0.57467 -0.1277,0.0716 -0.32737,0.14359 -0.49494,0.14359 h -1.38854 c -0.4706,0 -0.80609,-0.38312 -1.01353,-0.66252 -0.0639,-0.0875 -0.0797,-0.12771 -0.14358,-0.2473 l 0.79022,-0.26317 c 0,0 0.15946,0.22331 0.35102,0.36689 0,0 0.0159,0.008 0.0557,0.008 h 1.3088 c 0.0317,0 0.048,-0.008 0.048,-0.008 0.11959,-0.0639 0.35913,-0.30304 0.35913,-0.36689 v -0.47096 c 0,-0.072 -0.0561,-0.1277 -0.096,-0.13547 l -2.07468,-0.59055 c -0.40711,-0.11183 -0.6223,-0.50306 -0.6223,-0.86995 v -0.43109 c 0,-0.13547 0.0236,-0.31115 0.11959,-0.45473 0.0956,-0.14358 0.42298,-0.47872 0.59055,-0.57468 0.1277,-0.0716 0.31891,-0.14358 0.49459,-0.14358 h 1.1811 c 0.47872,0 0.8061,0.39088 1.01353,0.66252 0.0639,0.0878 0.10372,0.15946 0.15946,0.27905 l -0.80575,0.23142 c 0,0 -0.18379,-0.26317 -0.35136,-0.36689 0,0 -0.008,-0.008 -0.0476,-0.008 h -1.12536 c -0.0318,0 -0.048,0.008 -0.048,0.008 -0.12735,0.0639 -0.3429,0.28716 -0.3429,0.35102 v 0.39899 c 0,0.072 0.0476,0.1277 0.0879,0.13582 l 2.0828,0.60642 c 0.40675,0.11148 0.6223,0.51082 0.6223,0.86995 v 0.50271 c 0,0.13547 -0.024,0.31115 -0.12771,0.45473" />
        <path
           inkscape:connector-curvature="0"
           id="path9181"
           style="fill:#000000;fill-opacity:1;fill-rule:nonzero;stroke:none;stroke-width:0.35277778"
           d="m 109.83119,205.48226 c 0,0 0,0.024 0.008,0.0318 0.0956,0.14393 0.26318,0.29527 0.35102,0.34325 0.0159,0.008 0.0318,0.008 0.0399,0.008 h 1.149 c 0,0 0.024,0 0.0399,-0.008 0.0878,-0.048 0.25541,-0.19932 0.35137,-0.34325 0.008,-0.0159 0.008,-0.0318 0.008,-0.0318 v -2.46592 c 0,0 0,-0.0318 -0.008,-0.0399 -0.096,-0.14358 -0.26353,-0.30339 -0.35137,-0.35101 -0.0159,-0.008 -0.0318,-0.008 -0.0399,-0.008 h -1.149 c 0,0 -0.0318,0 -0.0399,0.008 -0.0878,0.0476 -0.25541,0.20743 -0.35102,0.35101 -0.008,0.0159 -0.008,0.0399 -0.008,0.0399 z m 2.65747,0.46284 c -0.10406,0.13582 -0.41521,0.47872 -0.58278,0.57468 -0.12771,0.0797 -0.32703,0.14358 -0.4946,0.14358 h -1.21285 c -0.17568,0 -0.36724,-0.0639 -0.49495,-0.14358 -0.16756,-0.096 -0.48683,-0.43886 -0.58243,-0.57468 -0.096,-0.14358 -0.12771,-0.30338 -0.12771,-0.45473 v -2.49802 c 0,-0.15134 0.0318,-0.31115 0.12771,-0.45473 0.0956,-0.13546 0.41487,-0.47872 0.58243,-0.57467 0.12771,-0.0797 0.31927,-0.14358 0.49495,-0.14358 h 1.21285 c 0.16757,0 0.36689,0.0639 0.4946,0.14358 0.16757,0.0959 0.47872,0.43921 0.58278,0.57467 0.0956,0.14358 0.12736,0.30339 0.12736,0.45473 v 2.49802 c 0,0.15135 -0.0318,0.31115 -0.12736,0.45473" />
        <path
           inkscape:connector-curvature="0"
           id="path9185"
           style="fill:#000000;fill-opacity:1;fill-rule:nonzero;stroke:none;stroke-width:0.35277778"
           d="m 116.13561,206.62339 -1.65171,-3.16794 v 3.16794 h -0.8382 v -4.77202 h 0.90206 l 1.63583,3.2078 v -3.2078 h 0.83784 v 4.77202 z" />
      </g>
    </g>
  </g>
</svg>
