<?xml version="1.0" encoding="utf-8"?>
<!-- Generator: Adobe Illustrator 21.0.0, SVG Export Plug-In . SVG Version: 6.00 Build 0)  -->
<svg version="1.1" id="Layer_1" xmlns="http://www.w3.org/2000/svg" xmlns:xlink="http://www.w3.org/1999/xlink" x="0px" y="0px"
	 viewBox="0 0 370.1 83.4" style="enable-background:new 0 0 370.1 83.4;" xml:space="preserve">
<style type="text/css">
	.st0{fill:#0033A1;}
	.st1{fill:#3FAE49;}
</style>
<path id="XMLID_62_" class="st0" d="M362.1,78.1c0,2.2,1.8,3.9,4,3.9s4-1.7,4-3.9c0-2.1-1.7-3.9-4-3.9
	C363.9,74.2,362.1,75.9,362.1,78.1z M366.1,75c1.7,0,3,1.4,3,3.1s-1.3,3.1-3,3.1s-3-1.4-3-3.1S364.4,75,366.1,75z"/>
<path id="XMLID_59_" class="st0" d="M365.5,78.6h0.4c0.5,0,0.7,0.2,0.8,0.6c0.1,0.5,0.2,0.8,0.3,0.9h1c-0.1-0.1-0.2-0.4-0.3-1
	c-0.1-0.5-0.3-0.8-0.7-0.9l0,0c0.5-0.1,0.8-0.5,0.8-0.9s-0.2-0.7-0.4-0.9c-0.3-0.2-0.6-0.3-1.3-0.3c-0.6,0-1.1,0-1.5,0.1v3.9h0.9
	L365.5,78.6L365.5,78.6z M365.5,76.8c0.1,0,0.3,0,0.5,0c0.6,0,0.8,0.2,0.8,0.6s-0.4,0.6-0.9,0.6h-0.4V76.8z"/>
<path id="XMLID_58_" class="st1" d="M317.9,83.2c20.4-5.6,22.8-21.6,22.8-41.5s-2.4-35.8-22.8-41.5c11.8,8.3,14.3,23.3,14.3,41.5
	C332.2,59.9,329.7,74.9,317.9,83.2z"/>
<path id="XMLID_57_" class="st1" d="M341,83.2c20.4-5.6,22.8-21.6,22.8-41.5S361.4,5.9,341,0.2c11.8,8.3,14.3,23.3,14.3,41.5
	S352.8,74.9,341,83.2z"/>
<path id="XMLID_56_" class="st0" d="M38.3,83.4h27.9c1.3,0,2.4-1.1,2.4-2.4V66.9c0-1.3-1.1-2.4-2.4-2.4H38.3
	c-11.7,0-14.7-1.5-15.5-13.9h41.8c1.3,0,2.4-1.1,2.4-2.4V34.7c0-1.3-1.1-2.4-2.4-2.4H22.9c0.8-11.8,4-13.2,15.4-13.2h27.9
	c1.3,0,2.4-1.1,2.4-2.4V2.4c0-1.3-1.1-2.4-2.4-2.4H38.3C-0.7,0,0,18.5,0,41.7C0,65-0.7,83.4,38.3,83.4z"/>
<path id="XMLID_55_" class="st0" d="M113.2,83.4c31.6,0,37.2-12.2,38.1-29.1c0.1-1.4-1-2.6-2.4-2.6h-18.1c-1.2,0-2.3,0.9-2.4,2.1
	c-1.1,9.3-4.7,10.6-15.2,10.6c-14,0-15.6-2.2-15.7-22.7c0-20.5,1.7-22.7,15.7-22.7c10.3,0,13.9,1.2,15.1,10.1
	c0.2,1.2,1.2,2.1,2.4,2.1h18.1c1.4,0,2.5-1.2,2.4-2.6c-1-16.7-6.8-28.6-38.1-28.6c-39,0-38.3,18.5-38.3,41.7
	C74.8,65,74.2,83.4,113.2,83.4z"/>
<path id="XMLID_54_" class="st0" d="M213.8,0.2c-2.2,0-4.1,1.8-4.1,4.1v26.8h-28.9V4.2c0-2.2-1.8-4.1-4.1-4.1h-14.2
	c-2.2,0-4.1,1.8-4.1,4.1v75c0,2.2,1.8,4.1,4.1,4.1h14.2c2.2,0,4.1-1.8,4.1-4.1V52.1h28.9v27.2c0,2.2,1.8,4.1,4.1,4.1H228
	c2.2,0,4.1-1.8,4.1-4.1v-75c0-2.2-1.8-4.1-4.1-4.1C228,0.2,213.8,0.2,213.8,0.2z"/>
<path id="XMLID_51_" class="st0" d="M277.9,83.4c39,0,38.3-18.5,38.3-41.7S316.9,0,277.9,0s-38.3,18.5-38.3,41.7
	C239.6,65,238.9,83.4,277.9,83.4z M277.9,19c14,0,15.7,2.2,15.7,22.7s-1.7,22.7-15.7,22.7s-15.7-2.2-15.7-22.7
	C262.2,21.2,263.9,19,277.9,19z"/>
</svg>
