<svg xmlns="http://www.w3.org/2000/svg" height="800" width="1200" viewBox="-22.990965 -9.763125 199.25503 58.57875"><path d="M0 0h145.1504v39.0525H0z"/><path d="M3.466 3.466h138.192V35.56H3.466z" fill="#ffdb00"/><path d="M152.2677 32.8877c.4233.4498.635.979.635 1.614 0 .635-.2117 1.1641-.635 1.6404-.4233.4498-.926.6614-1.5346.6614-.6085 0-1.1112-.2116-1.5346-.6614-.4233-.4498-.635-1.0054-.635-1.6404s.2117-1.1907.635-1.614c.4234-.4498.926-.6615 1.5346-.6615.6086 0 1.1377.2117 1.5346.6615zm.2646-.2646c-.5027-.5291-1.0848-.7673-1.7992-.7673-.6879 0-1.2964.2646-1.7727.7673-.5027.5292-.7408 1.1377-.7408 1.8786 0 .7408.2381 1.3758.7408 1.8785.4763.5292 1.0848.7938 1.7727.7938.688 0 1.2965-.2646 1.7992-.7938.5027-.5292.7408-1.1377.7408-1.8785 0-.7144-.2381-1.3494-.7408-1.8786zm-1.4023 1.7727c-.1058.053-.2646.053-.4498.053h-.4498v-1.0584h.4233c.2646 0 .4763.0265.5821.1058.1323.0794.1852.2117.1852.4234-.0264.2381-.1058.3969-.291.4762zm-1.4023 1.561h.4763v-1.164h.3968c.2646 0 .4498.0264.5557.1057.1852.1059.2645.3175.2645.6615v.2381l.0265.0794v.053h.4498v-.0265c0-.0265-.0265-.0794-.0265-.1588v-.4233c0-.1588-.0529-.291-.1587-.4498-.1059-.1588-.2646-.2646-.4763-.291.1588-.0265.291-.0794.397-.1324.1851-.1322.2645-.3175.2645-.582 0-.3705-.1323-.6086-.4233-.7409-.1588-.0529-.4234-.1058-.7673-.1058h-.979zm-13.8642-9.0487c-.1587-1.0319-.7408-2.3019-1.7198-3.5454-1.4552-1.852-3.175-2.884-4.392-2.7252v-.0265h-8.943c-4.048-4.3656-8.2285-8.89-9.1016-9.9218-1.5875-1.8786-2.593-1.905-2.9634-1.8257h-95.197c-2.1696-.0529-3.2015.5557-3.6777 1.1642-.6615.8731-.635 2.1431.1058 3.7835h.0264c.4763 1.0848 1.3759 2.249 2.54 3.3338 2.196 1.958 4.5773 2.831 5.8738 2.2225h5.9267c4.1275 4.445 8.4402 9.1281 9.3398 10.1865 1.5875 1.8785 2.7252 1.6933 2.8575 1.6933h93.7947c.4498.0794 3.572.635 5.0271-1.0054.635-.8202.8202-1.9315.5027-3.3338zm-2.5135-3.0427l.053.053c.291.3703.529.7408.7143 1.0847h-3.81c-.2381-.3969-.4498-.7673-.6086-1.1377zm-5.8473 3.9423c-.1587-.1587-.3175-.344-.4762-.5292h3.9158c.1852.1852.3704.3705.5556.5292zm4.5508.4498c.1323.1058.2646.1852.397.2646h-4.2599c-.0794-.0794-.1587-.1852-.2381-.2646zm-5.4768-1.4552c-.1588-.1852-.3175-.344-.5027-.5292h3.9952c.0529.053.0793.1059.1323.1588.1058.1323.2116.2381.3175.3704zm-.926-1.0054c-.1853-.1852-.3705-.3969-.5557-.6086h4.2598c.1058.2117.2381.397.3704.6086zm3.9422-4.1804c.4763-.3705 1.905.1852 3.3867 1.7991h-3.4131c-.1853-.5291-.2382-.979-.2117-1.2964.0264-.2382.1058-.397.2381-.5027zm-.5027 3.122h-4.445c-.2117-.2116-.4233-.4498-.635-.6614h4.7625c.1058.2116.2117.4498.3175.6614zm-5.4769-1.1112c-.1323-.1588-.291-.3175-.4233-.4763h5.3181c.0265.1588.0794.3175.1323.4763zm4.9477-2.1167c-.0529.1588-.1058.3175-.1323.5027 0 .1059-.0264.2117-.0264.3175 0 .1059 0 .2382.0264.344h-5.6885c-.344-.3969-.7144-.7673-1.0848-1.1642zm-17.5948-10.2394c.1059.1323.2646.3175.4763.5292H18.5737a113.0576 113.0576 0 01-1.1112-1.1906h92.8952c.1852.1587.3969.3704.6085.6614zm-93.2391.979c.2646.291.582.635.926 1.0054h-1.852c-.1324-.1323-.2646-.2646-.397-.3704-.238-.2117-.5026-.4233-.7408-.6085h2.0638zm-2.6988-.4498c-.344-.2381-.6614-.4233-1.0054-.582h2.6988c.1587.1587.344.3703.5556.582zm93.7948-2.0373l.0794-.0264s.3175-.0265.8996.3968H17.0127c-.1058-.1058-.1587-.1852-.1852-.2116l-.0794-.0794c-.0264-.0265-.0529-.053-.0794-.053zm-92.5248.979h-3.3337c-.1588-.053-.3175-.1059-.4763-.1323h3.6777c.0265 0 .0794.053.1323.1323zm-1.3493-.8467c.3175.053.5291.1323.7143.2381h-4.445c.6086-.3175 1.7198-.5027 3.7307-.238zm-4.3392.7144h.0794c-.0265 0-.0794 0-.0794.0264zm-.0794 1.7198c-.0264-.291.053-.5292.1852-.688.1323-.1587.3704-.238.688-.2645 1.0318-.053 2.5929.6879 4.0216 1.852h-4.6831c-.1323-.3174-.1852-.6085-.2117-.8995zm.4233 1.3758h5.0007c.582.5556 1.0848 1.1113 1.4552 1.6669h-5.2917c-.4762-.5556-.8731-1.1113-1.1642-1.6669zm2.2225 2.7517c-.2116-.1852-.4233-.3969-.635-.6086h5.1859a4.7706 4.7706 0 01.635 1.4552h-4.101c-.3705-.2645-.7409-.5291-1.0849-.8466zm5.2653 1.3229c0 .2381-.053.4498-.1853.582-.4497.5028-1.7462.2647-3.2543-.6085zm-1.1642-4.0746h1.7992c.4762.5292 1.0054 1.0848 1.5345 1.6669h-2.0637c-.3175-.5556-.7408-1.1113-1.27-1.6669zm3.7835 2.1431c.4498.4763.8996.9525 1.3494 1.4552h-3.0956c-.053-.4497-.2381-.9525-.5027-1.4552zm1.7992 1.905c.053.0794.1323.1323.1852.2117H19.341c0-.0794.0265-.1323.0265-.2117zm-3.863 1.1377c.106-.1322.2117-.291.2647-.4497h4.2068c.1323.1587.291.3175.4234.4497zm14.367 8.9165c-.291-.3175-.635-.7144-1.032-1.1377h1.1378v-.4763h-1.561c-.291-.3175-.5821-.635-.8996-1.0054h2.4606v-.4498h-2.884c-.4762-.5027-.9525-1.0318-1.4816-1.5875h4.3656v-.4498h-4.789c-.3704-.4233-.7673-.8466-1.1641-1.27h5.953v-.4762h-6.3764c-.3175-.344-.6085-.6615-.926-1.0054h7.3025v-.4498H25.744c-.2117-.2117-.4234-.4498-.635-.6615h8.3608v-.4762h-8.7842c-.1852-.2117-.3704-.3969-.5556-.6086h9.3398v-.4498h-9.7631c-.1323-.1322-.2382-.2645-.3705-.3968h10.1336v-.4763H22.8865c-.1853-.2116-.3705-.3969-.5557-.6085h11.1125v-.4763H21.9075c-.1852-.2116-.3704-.3968-.5556-.6085h12.1179v-.4763H20.9285c-.1852-.2116-.3704-.3968-.5556-.6085h13.0969v-.4498H19.923c-.3175-.344-.635-.688-.926-1.0054h92.8423c.2646.291.5556.635.8996 1.0054h-1.0848v.4498h1.5345c.1853.1852.3705.3969.5557.6085h-2.0902v.4763h2.5135c.1852.1852.3704.3969.5556.6085h-3.0691v.4763h3.4925c.1852.1852.3704.3969.5556.6085h-4.0481v.4763h4.4714c.1323.1323.2381.2646.3704.3968h-4.8418v.4498h5.2652c.1852.2117.3704.397.5556.6086h-5.8208v.4762h6.2441c.2117.2117.397.4498.6086.6615h-6.8527v.4498h7.3025c.291.344.6085.6614.926 1.0054h-8.202v.4762h8.6518c.3969.4234.7937.8467 1.1642 1.27h-9.8425v.4498H121.92c.1323.1588.291.3175.4233.4763h-10.6891v.4498h11.1125c.2116.2116.4233.4498.6085.6614h-11.721v.4498h12.1708c.1852.2117.3704.397.5556.6086h-12.7264v.8466h.0264v-.3968h13.1234c.1587.1852.344.3704.5027.5291h-13.6525v.4763H125.73c.1852.1852.344.3704.5027.5291H33.364zm.4233.4498h92.8952c.1852.2117.3969.4233.5556.6085H34.3165c-.1323-.1587-.3175-.344-.5292-.6085zm2.6458 2.0637c-.0794 0-.6879.053-1.6933-.979h92.9217c.5556.5822.8995.9526.8995.9526zm94.033-.0264c-.397-.1058-.635-.1852-.8203-.3175h4.498c-1.1378.6614-3.0163.4762-3.6778.3175zm4.2068-.7673h-5.5562c-.1059-.1058-.2646-.291-.5027-.5292h4.736a2.757 2.757 0 00.7408.1852c.291.0265.5557 0 .8202-.0793-.0529.1587-.1323.291-.238.4233zm.0794-1.3494c-.1323.1059-.3175.1323-.5556.1059-.7673-.0794-2.0638-.8732-3.2809-2.4078-.1058-.1322-.1852-.2645-.291-.3968h3.7835c.053.1058.1059.2116.1588.344.1852.5026.344.9789.4233 1.4022.0265.4498-.0529.7938-.2381.9525z"/><path d="M50.112 26.088V13.97h4.551c2.143 0 3.8364.635 3.8364 3.0427 0 1.2435-.635 2.1431-1.2436 2.6458 1.032.344 1.5875 1.4552 1.5875 2.7782 0 2.7252-1.614 3.6512-4.101 3.6512zm3.1222-5.0536v2.249H54.61c.7673 0 1.3494-.2117 1.3494-1.1113 0-1.0584-.7409-1.1377-1.7198-1.1377zm0-4.2334v2.0109h1.2964c.635 0 1.0848-.344 1.0848-1.0584 0-.9525-.6085-.9525-1.27-.9525zm14.605 9.287V13.97h3.122v4.101h2.9634V13.97h3.122v12.118h-3.122v-4.6832h-2.9634v4.7096h-3.122zm11.43-12.118h3.122v7.2496c0 1.1906.1853 2.2225 1.4817 2.2225 1.1113 0 1.4552-.8996 1.4552-2.2225V13.97h3.1221v6.8527c0 3.8894-1.4023 5.5827-4.5773 5.5827-2.9633 0-4.6037-1.4287-4.6037-5.6092zm17.3302 6.6146l-.1059-2.7517V13.97h2.9898v12.118h-2.9368l-3.3867-6.5882.1058 2.7517v3.8364h-2.9898V13.97h2.937zm4.2068-6.6146h8.7313v3.175h-2.8046v8.943h-3.122v-8.943h-2.8047zm-55.483 9.1281c-.8997 0-1.6405.7409-1.6405 1.6404 0 .8996.7408 1.6405 1.6404 1.6405.8996 0 1.6404-.7409 1.6404-1.6405 0-.926-.7143-1.6404-1.6404-1.6404zm15.9808 0c-.8996 0-1.6405.7409-1.6405 1.6404 0 .8996.7409 1.6405 1.6405 1.6405.8995 0 1.6404-.7409 1.6404-1.6405 0-.926-.7409-1.6404-1.6404-1.6404zm-24.2359-.5027c.9525 1.1642 1.8786 1.1642 2.4077 1.0054.6086-.1852.7938-.6614.7938-1.6404V13.97h3.122v7.4348c0 3.2014-1.1906 4.8419-3.7041 5.0006-2.4342.1323-3.0956-.3175-4.4715-1.8256z"/></svg>