<?xml version="1.0" encoding="UTF-8" standalone="no"?>
<!-- Created with Inkscape (http://www.inkscape.org/) -->

<svg
   xmlns:dc="http://purl.org/dc/elements/1.1/"
   xmlns:cc="http://creativecommons.org/ns#"
   xmlns:rdf="http://www.w3.org/1999/02/22-rdf-syntax-ns#"
   xmlns:svg="http://www.w3.org/2000/svg"
   xmlns="http://www.w3.org/2000/svg"
   xmlns:sodipodi="http://sodipodi.sourceforge.net/DTD/sodipodi-0.dtd"
   xmlns:inkscape="http://www.inkscape.org/namespaces/inkscape"
   width="115.31053"
   height="125.69905"
   viewBox="0 0 30.509244 33.257873"
   version="1.1"
   id="svg24376"
   inkscape:version="0.92.0 r15299"
   sodipodi:docname="landstar.svg">
  <defs
     id="defs24370">
    <clipPath
       id="clipPath22277"
       clipPathUnits="userSpaceOnUse">
      <path
         inkscape:connector-curvature="0"
         id="path22275"
         d="m 304.519,374.605 h 185.116 v 95.449 H 304.519 Z" />
    </clipPath>
  </defs>
  <sodipodi:namedview
     id="base"
     pagecolor="#ffffff"
     bordercolor="#666666"
     borderopacity="1.0"
     inkscape:pageopacity="0.0"
     inkscape:pageshadow="2"
     inkscape:zoom="4.2742908"
     inkscape:cx="57.155265"
     inkscape:cy="62.349541"
     inkscape:document-units="mm"
     inkscape:current-layer="layer1"
     showgrid="false"
     fit-margin-top="0"
     fit-margin-left="0"
     fit-margin-right="0"
     fit-margin-bottom="0"
     units="px"
     inkscape:window-width="1280"
     inkscape:window-height="744"
     inkscape:window-x="-4"
     inkscape:window-y="-4"
     inkscape:window-maximized="1" />
  <metadata
     id="metadata24373">
    <rdf:RDF>
      <cc:Work
         rdf:about="">
        <dc:format>image/svg+xml</dc:format>
        <dc:type
           rdf:resource="http://purl.org/dc/dcmitype/StillImage" />
        <dc:title></dc:title>
      </cc:Work>
    </rdf:RDF>
  </metadata>
  <g
     inkscape:label="Layer 1"
     inkscape:groupmode="layer"
     id="layer1"
     transform="translate(-16.4845,-120.39301)">
    <g
       id="g24793"
       transform="translate(0.13229191,-0.13228758)">
      <path
         d="m 19.113753,153.55839 0.223308,-1.19909 h -1.195916 l 0.49918,-2.69275 h -1.437569 l -0.718256,3.89184 z"
         style="fill:#3776c4;fill-opacity:1;fill-rule:nonzero;stroke:none;stroke-width:0.35277778"
         id="path22367"
         inkscape:connector-curvature="0" />
      <path
         d="m 20.610483,153.55839 0.212372,-0.51858 h 0.93592 l 0.02646,0.51858 h 1.385005 l -0.507647,-3.89184 h -1.539169 l -2.031295,3.89184 z m 0.872067,-2.08386 c 0.02999,-0.0765 0.06174,-0.16333 0.0956,-0.25964 0.03351,-0.0967 0.06632,-0.19721 0.09807,-0.30198 -0.0018,0.0339 -0.0032,0.0699 -0.0039,0.10795 -7.05e-4,0.0381 -0.0014,0.0928 -0.0014,0.16334 0,0.10653 0.0046,0.24659 0.01376,0.42015 0.0014,0.0427 0.0032,0.0755 0.0049,0.0981 l 0.01587,0.41769 h -0.497064 z"
         style="fill:#3776c4;fill-opacity:1;fill-rule:nonzero;stroke:none;stroke-width:0.35277778"
         id="path22371"
         inkscape:connector-curvature="0" />
      <path
         d="m 24.791711,153.55839 0.199672,-1.09008 0.0049,-0.0318 c 0.07267,-0.40958 0.112536,-0.70521 0.119592,-0.8883 l 0.720725,2.01013 h 1.424869 l 0.720372,-3.89184 h -1.411816 l -0.37465,2.02529 c -0.03916,-0.19649 -0.10795,-0.42968 -0.207434,-0.69885 -0.01411,-0.0409 -0.02469,-0.0709 -0.03175,-0.0903 l -0.446616,-1.23613 h -1.427692 l -0.71755,3.89184 z"
         style="fill:#3776c4;fill-opacity:1;fill-rule:nonzero;stroke:none;stroke-width:0.35277778"
         id="path22375"
         inkscape:connector-curvature="0" />
      <path
         d="m 29.207078,153.55839 c 0.481894,0 0.881944,-0.0406 1.199092,-0.12136 0.317147,-0.0804 0.596194,-0.21131 0.837141,-0.39193 0.256823,-0.19121 0.456495,-0.43004 0.598311,-0.71614 0.141464,-0.2861 0.212373,-0.59373 0.212373,-0.9211 0,-0.34925 -0.08079,-0.65617 -0.243417,-0.92146 -0.161572,-0.26458 -0.396169,-0.47343 -0.702733,-0.62583 -0.140053,-0.0656 -0.319264,-0.1143 -0.538339,-0.14605 -0.218722,-0.0321 -0.491067,-0.048 -0.817739,-0.048 h -1.052336 l -0.71755,3.89184 z m 0.6858,-2.72203 h 0.02681 c 0.218017,0 0.390172,0.0586 0.51682,0.17639 0.126647,0.11782 0.190147,0.27869 0.190147,0.4826 0,0.27657 -0.08855,0.49424 -0.265642,0.65369 -0.177094,0.15946 -0.422628,0.23954 -0.7366,0.23954 h -0.01588 z"
         style="fill:#3776c4;fill-opacity:1;fill-rule:nonzero;stroke:none;stroke-width:0.35277778"
         id="path22379"
         inkscape:connector-curvature="0" />
      <path
         d="m 32.809045,153.47167 c 0.294217,0.11994 0.593725,0.17921 0.898878,0.17921 0.481894,0 0.880886,-0.13547 1.197328,-0.40781 0.316441,-0.27234 0.474486,-0.61172 0.474486,-1.01953 0,-0.25858 -0.0628,-0.47201 -0.188736,-0.64029 -0.125942,-0.16863 -0.340431,-0.32103 -0.643114,-0.45755 -0.03598,-0.0159 -0.08467,-0.037 -0.146403,-0.0639 -0.233892,-0.0991 -0.351014,-0.19192 -0.351014,-0.2787 0,-0.0519 0.01976,-0.0928 0.05997,-0.12382 0.03951,-0.0311 0.09243,-0.0466 0.158045,-0.0466 0.108302,0 0.226483,0.0335 0.354894,0.10089 0.128411,0.0677 0.271639,0.1704 0.428978,0.30868 l 0.545394,-0.95461 c -0.195439,-0.16299 -0.409222,-0.2854 -0.642408,-0.36689 -0.232833,-0.0815 -0.487186,-0.12206 -0.763764,-0.12206 -0.478719,0 -0.865717,0.12806 -1.161697,0.38382 -0.295981,0.25647 -0.444147,0.58737 -0.444147,0.99272 0,0.25752 0.07585,0.47695 0.227189,0.65828 0.151694,0.18168 0.394052,0.34149 0.727075,0.48013 0.02505,0.0106 0.05962,0.0247 0.104069,0.0423 0.201789,0.0811 0.303036,0.1577 0.303036,0.2286 0,0.0462 -0.02364,0.0833 -0.0695,0.11148 -0.04621,0.0282 -0.107597,0.0423 -0.185914,0.0423 -0.175331,0 -0.351719,-0.0504 -0.527756,-0.1524 -0.176388,-0.10195 -0.341488,-0.2487 -0.495652,-0.43991 l -0.696736,1.01776 c 0.26423,0.23249 0.543277,0.40817 0.837494,0.52776"
         style="fill:#3776c4;fill-opacity:1;fill-rule:nonzero;stroke:none;stroke-width:0.35277778"
         id="path22383"
         inkscape:connector-curvature="0" />
      <path
         d="m 37.3893,153.55839 0.502356,-2.7118 h 0.805391 l 0.218017,-1.18004 h -3.059642 l -0.223308,1.18004 h 0.832203 l -0.499886,2.7118 z"
         style="fill:#3776c4;fill-opacity:1;fill-rule:nonzero;stroke:none;stroke-width:0.35277778"
         id="path22387"
         inkscape:connector-curvature="0" />
      <path
         d="m 39.763,153.55839 0.212372,-0.51858 h 0.936272 l 0.02646,0.51858 h 1.384652 l -0.507999,-3.89184 H 40.27594 l -2.030942,3.89184 z m 0.872067,-2.08386 c 0.03034,-0.0765 0.06209,-0.16333 0.0956,-0.25964 0.03387,-0.0967 0.06632,-0.19721 0.09842,-0.30198 -0.0018,0.0339 -0.0032,0.0699 -0.0042,0.10795 -7.05e-4,0.0381 -0.0011,0.0928 -0.0011,0.16334 0,0.10653 0.0046,0.24659 0.0134,0.42015 0.0014,0.0427 0.0032,0.0755 0.0049,0.0981 l 0.01588,0.41769 h -0.496711 z"
         style="fill:#3776c4;fill-opacity:1;fill-rule:nonzero;stroke:none;stroke-width:0.35277778"
         id="path22391"
         inkscape:connector-curvature="0" />
      <path
         d="m 43.920627,153.55839 0.263172,-1.41464 0.422628,1.41464 h 1.443567 l -0.560917,-1.49648 c 0.3048,-0.0656 0.540808,-0.20532 0.708025,-0.4191 0.167569,-0.21308 0.25153,-0.48225 0.25153,-0.80645 0,-0.38277 -0.145344,-0.67381 -0.436033,-0.87207 -0.290336,-0.19861 -0.716491,-0.29774 -1.278466,-0.29774 H 43.23518 l -0.718256,3.89184 z m 0.53975,-2.92382 h 0.0822 c 0.175331,0 0.303389,0.0258 0.383822,0.078 0.08079,0.0522 0.121356,0.13476 0.121356,0.24836 0,0.14746 -0.05045,0.25576 -0.151694,0.32561 -0.100895,0.0699 -0.258587,0.10548 -0.472723,0.10548 h -0.104069 z"
         style="fill:#3776c4;fill-opacity:1;fill-rule:nonzero;stroke:none;stroke-width:0.35277778"
         id="path22395"
         inkscape:connector-curvature="0" />
      <path
         d="m 17.142748,131.25786 8.226072,6.43996 -3.252258,10.5216 9.819922,-6.12211 9.373658,6.45689 -3.635022,-10.84968 9.054041,-6.44666 H 35.889359 l -1.702859,-4.56741 -2.250016,-6.03286 -1.98367,5.31778 -0.70485,1.89053 -1.265413,3.39196 z"
         style="fill:#3776c4;fill-opacity:1;fill-rule:nonzero;stroke:none;stroke-width:0.35277778"
         id="path22399"
         inkscape:connector-curvature="0" />
      <path
         d="m 29.247753,127.86586 -0.269169,0.72108 c -4.678186,1.40723 -7.669389,4.25097 -7.669389,4.25097 2.566458,-3.27519 7.938558,-4.97205 7.938558,-4.97205"
         style="fill:#110f0e;fill-opacity:1;fill-rule:nonzero;stroke:none;stroke-width:0.35277778"
         id="path22403"
         inkscape:connector-curvature="0" />
      <path
         d="m 34.192357,126.70808 0.314678,0.83502 c 0,0 1.379361,-0.34889 3.589866,-0.0808 1.604786,0.19438 3.723922,0.67098 4.823884,1.54093 1.440744,1.13877 1.524352,1.81822 1.674636,2.47862 0.43568,1.90958 -1.540934,4.08693 -1.540934,4.08693 1.072445,-0.93804 2.780948,-3.18241 2.344914,-4.8574 -0.437091,-1.6824 -2.110316,-3.18205 -5.393266,-3.91936 -2.814461,-0.63218 -5.813778,-0.084 -5.813778,-0.084"
         style="fill:#110f0e;fill-opacity:1;fill-rule:nonzero;stroke:none;stroke-width:0.35277778"
         id="path22407"
         inkscape:connector-curvature="0" />
      <path
         d="m 17.593387,138.87422 c 0.573969,1.84891 2.742142,4.27214 8.17633,4.2986 2.124075,0.01 5.359753,-0.13406 9.580386,-1.50742 4.857397,-1.5808 8.408106,-5.2257 8.408106,-5.2257 -4.722989,3.71828 -8.240536,5.3594 -15.20825,5.9623 -1.671814,0.14499 -8.866011,0.17533 -10.31875,-4.0379 -0.637822,-1.84926 -0.127705,-3.2519 1.275292,-5.16502 -2.359378,2.23203 -2.445456,3.96029 -1.913114,5.67514"
         style="fill:#110f0e;fill-opacity:1;fill-rule:nonzero;stroke:none;stroke-width:0.35277778"
         id="path22411"
         inkscape:connector-curvature="0" />
      <path
         d="m 41.977845,147.9054 v -0.20708 h 0.137936 c 0.0702,0 0.145345,0.0155 0.145345,0.0981 0,0.10301 -0.07655,0.10901 -0.162278,0.10901 z m 0,0.0857 h 0.116417 l 0.176036,0.28858 h 0.113241 l -0.189794,-0.29316 c 0.09807,-0.0123 0.173214,-0.0642 0.173214,-0.1838 0,-0.13194 -0.07832,-0.19015 -0.235656,-0.19015 h -0.254352 v 0.66711 h 0.100894 z m 0.122767,0.53235 c 0.31503,0 0.582789,-0.24377 0.582789,-0.57856 0,-0.33232 -0.267759,-0.57538 -0.582789,-0.57538 -0.319264,0 -0.588786,0.24306 -0.588786,0.57538 0,0.33479 0.269522,0.57856 0.588786,0.57856 m -0.473075,-0.57856 c 0,-0.27411 0.207433,-0.47978 0.473075,-0.47978 0.261408,0 0.46743,0.20567 0.46743,0.47978 0,0.27834 -0.206022,0.4826 -0.46743,0.4826 -0.265642,0 -0.473075,-0.20426 -0.473075,-0.4826"
         style="fill:#100f0d;fill-opacity:1;fill-rule:nonzero;stroke:none;stroke-width:0.35277778"
         id="path22415"
         inkscape:connector-curvature="0" />
    </g>
  </g>
</svg>
