<?xml version="1.0" encoding="UTF-8"?>
<svg id="Layer_1" data-name="Layer 1" xmlns="http://www.w3.org/2000/svg" width="425.02734" height="149.13867" viewBox="0 0 425.02734 149.13867">
  <polygon points="276.81641 2.29004 230.89648 2.29004 203.81982 40.59814 176.74365 2.29004 130.61377 2.29004 180.75488 73.2168 128.7417 146.84863 174.66016 146.84863 203.81396 105.63184 232.7666 146.84863 278.90723 146.84863 226.67676 73.21436 276.81641 2.29004"/>
  <path d="M403.24121,21.42236C389.17676,7.60791,369.9502,0,349.10352,0c-20.8584,0-40.12012,7.60693-54.2373,21.41943-14.11816,13.81348-21.89355,32.65234-21.89355,53.04541,0,42.57129,32.72949,74.67383,76.13086,74.67383,43.2832,0,75.92383-32.10254,75.92383-74.67383,0-20.40479-7.7373-39.24219-21.78613-53.04248Zm-18.03027,53.04248c0,21.41602-15.52246,37.56543-36.10742,37.56543s-36.10645-16.14941-36.10645-37.56543c0-21.29639,15.52246-37.35596,36.10645-37.35596s36.10742,16.05957,36.10742,37.35596Z"/>
  <path d="M122.27734,52.6001c0-28.68164-23.15088-50.31006-53.85059-50.31006H0V38.14941H68.42676c8.00098,0,14.03467,6.2124,14.03467,14.45068,0,8.49414-5.90234,14.65918-14.03467,14.65918H0v79.58936H38.56738v-43.93652h21.62646l25.40479,43.93652h43.14307l-30.09766-52.08301c14.83887-9.02246,23.6333-24.6377,23.6333-42.16553Z"/>
</svg>