<?xml version="1.0" encoding="UTF-8" standalone="no"?>
<!-- Created with Inkscape (http://www.inkscape.org/) -->

<svg
   xmlns:dc="http://purl.org/dc/elements/1.1/"
   xmlns:cc="http://creativecommons.org/ns#"
   xmlns:rdf="http://www.w3.org/1999/02/22-rdf-syntax-ns#"
   xmlns:svg="http://www.w3.org/2000/svg"
   xmlns="http://www.w3.org/2000/svg"
   xmlns:sodipodi="http://sodipodi.sourceforge.net/DTD/sodipodi-0.dtd"
   xmlns:inkscape="http://www.inkscape.org/namespaces/inkscape"
   width="152.99947"
   height="30.61227"
   viewBox="0 0 40.481109 8.0994966"
   version="1.1"
   id="svg22758"
   inkscape:version="0.92.0 r15299"
   sodipodi:docname="schneider.svg">
  <defs
     id="defs22752">
    <clipPath
       id="clipPath22545"
       clipPathUnits="userSpaceOnUse">
      <path
         inkscape:connector-curvature="0"
         id="path22543"
         d="M 240,40.395 H 353.999 V 62.604 H 240 Z" />
    </clipPath>
  </defs>
  <sodipodi:namedview
     id="base"
     pagecolor="#ffffff"
     bordercolor="#666666"
     borderopacity="1.0"
     inkscape:pageopacity="0.0"
     inkscape:pageshadow="2"
     inkscape:zoom="5.9013729"
     inkscape:cx="75.999265"
     inkscape:cy="14.805733"
     inkscape:document-units="mm"
     inkscape:current-layer="layer1"
     showgrid="false"
     fit-margin-top="0"
     fit-margin-left="0"
     fit-margin-right="0"
     fit-margin-bottom="0"
     units="px"
     inkscape:window-width="1280"
     inkscape:window-height="744"
     inkscape:window-x="-4"
     inkscape:window-y="-4"
     inkscape:window-maximized="1" />
  <metadata
     id="metadata22755">
    <rdf:RDF>
      <cc:Work
         rdf:about="">
        <dc:format>image/svg+xml</dc:format>
        <dc:type
           rdf:resource="http://purl.org/dc/dcmitype/StillImage" />
        <dc:title></dc:title>
      </cc:Work>
    </rdf:RDF>
  </metadata>
  <g
     inkscape:label="Layer 1"
     inkscape:groupmode="layer"
     id="layer1"
     transform="translate(23.13195,-7.8238069)">
    <g
       id="g22883"
       transform="translate(0.13229185,-0.13229198)">
      <path
         d="m -14.602665,10.086559 c 0.03951,-0.4744861 -0.20955,-0.7457722 -0.677333,-0.7457722 -0.524228,0 -0.919692,0.4487333 -1.074561,1.3271502 -0.112537,0.638175 -0.07902,1.238603 0.678744,1.238603 0.480483,0 0.766939,-0.334787 0.900642,-0.77082 h 1.434747 c -0.340078,1.175103 -1.305278,1.883128 -2.505781,1.883128 -1.504244,0 -2.251427,-0.922867 -1.990725,-2.401711 0.259998,-1.4721419 1.419578,-2.3886585 2.689578,-2.3886585 1.39065,0 2.046464,0.688975 1.960386,1.8580805 z"
         style="fill:#f3601c;fill-opacity:1;fill-rule:nonzero;stroke:none;stroke-width:0.35277778"
         id="path22549"
         inkscape:connector-curvature="0" />
      <path
         d="m -19.360897,9.5774658 c 0.0025,-0.1636889 -0.06526,-0.2614083 -0.165806,-0.3203222 -0.100541,-0.058561 -0.233186,-0.085019 -0.383469,-0.085019 -0.339372,0 -0.507294,0.098425 -0.536928,0.2681111 -0.12453,0.7055563 2.656417,0.2677584 2.354792,1.9790843 -0.192264,1.090436 -1.193095,1.619602 -2.486731,1.619602 -1.240719,0 -1.922991,-0.725311 -1.805869,-1.574094 h 1.476375 c 0.0025,0.169686 0.07197,0.294217 0.188736,0.372533 0.110419,0.07832 0.2667,0.117475 0.416983,0.117475 0.385234,0 0.662164,-0.12453 0.70097,-0.346075 0.125941,-0.712258 -2.664883,-0.22225 -2.347736,-2.0178891 0.176389,-0.9994195 1.126419,-1.5024806 2.30258,-1.5024806 1.306336,0 1.782939,0.6660445 1.74872,1.489075 z"
         style="fill:#f3601c;fill-opacity:1;fill-rule:nonzero;stroke:none;stroke-width:0.35277778"
         id="path22553"
         inkscape:connector-curvature="0" />
      <path
         d="m -12.621218,8.3191075 h 1.473553 l -0.252236,1.5289389 h 1.371247 l 0.259997,-1.5289389 h 1.4894278 l -0.7803444,4.6019865 h -1.4894274 l 0.291747,-1.773062 h -1.38677 l -0.323144,1.788584 h -1.473553 z"
         style="fill:#f3601c;fill-opacity:1;fill-rule:nonzero;stroke:none;stroke-width:0.35277778"
         id="path22557"
         inkscape:connector-curvature="0" />
      <path
         d="m -8.5551019,12.921093 0.7958666,-4.6097471 h 1.3948834 l 1.2290777,2.2535441 0.3545417,-2.2535441 h 1.3948833 l -0.8117417,4.6175081 h -1.3631333 l -1.2294305,-2.009422 -0.3464278,2.009422 z"
         style="fill:#f3601c;fill-opacity:1;fill-rule:nonzero;stroke:none;stroke-width:0.35277778"
         id="path22561"
         inkscape:connector-curvature="0" />
      <path
         d="m -2.8342106,8.3112405 h 3.67982492 l -0.180975,1.0717389 H -1.5419856 l -0.1023056,0.6699246 h 1.45767776 L -0.3443051,11.108768 H -1.841494 l -0.1100666,0.73272 H 0.33373377 L 0.14429211,12.913227 H -3.6142022 Z"
         style="fill:#f3601c;fill-opacity:1;fill-rule:nonzero;stroke:none;stroke-width:0.35277778"
         id="path22565"
         inkscape:connector-curvature="0" />
      <path
         d="M 8.0875422,8.3112405 H 11.767367 L 11.586392,9.3829794 H 9.3797672 L 9.2774616,10.052904 h 1.4576774 l -0.157691,1.055864 H 9.0802588 l -0.1100666,0.73272 h 2.2852948 l -0.189442,1.071739 H 7.3075506 Z"
         style="fill:#f3601c;fill-opacity:1;fill-rule:nonzero;stroke:none;stroke-width:0.35277778"
         id="path22569"
         inkscape:connector-curvature="0" />
      <path
         d="M 1.3579534,8.3191075 H 2.8315061 L 2.0278784,12.921094 H 0.56984786 Z"
         style="fill:#f3601c;fill-opacity:1;fill-rule:nonzero;stroke:none;stroke-width:0.35277778"
         id="path22573"
         inkscape:connector-curvature="0" />
      <path
         d="m 4.2420528,11.770544 c 1.1595805,0 1.2971639,-0.318911 1.4520333,-0.516819 C 5.889525,11.003958 6.0888444,10.188688 5.9205694,9.7769968 5.7078444,9.2570024 4.6675028,9.3988191 4.6675028,9.3988191 Z M 3.3752778,8.3112052 h 2.1671139 c 0,0 1.5836194,-0.023636 1.8203333,1.2844638 0.2363611,1.3081 -0.6385278,2.576689 -1.11125,2.876197 -0.4727222,0.299509 -0.8195028,0.449086 -1.8834805,0.449086 H 2.5712973 Z"
         style="fill:#f3601c;fill-opacity:1;fill-rule:nonzero;stroke:none;stroke-width:0.35277778"
         id="path22577"
         inkscape:connector-curvature="0" />
      <path
         d="m 13.329291,10.311879 c 0,0 0.757061,0.03951 1.049161,-0.07091 C 14.670199,10.130551 14.82013,9.7125096 14.55978,9.5075457 14.36681,9.3554985 13.495097,9.3971262 13.495097,9.3971262 Z M 12.177824,8.3165679 h 2.445103 c 0,0 1.269647,-0.094897 1.443214,0.7411861 0.173567,0.8360833 -0.165806,1.467203 -0.914753,1.711678 0,0 0.733425,0.126294 0.623006,0.788811 -0.11042,0.662517 -0.242359,1.35643 -0.242359,1.35643 h -1.445683 l 0.173567,-1.056922 c 0,0 0.158044,-0.544336 -0.552097,-0.544336 h -0.552098 l -0.283986,1.601258 h -1.482725 z"
         style="fill:#f3601c;fill-opacity:1;fill-rule:nonzero;stroke:none;stroke-width:0.35277778"
         id="path22581"
         inkscape:connector-curvature="0" />
      <path
         d="m -23.13195,15.923303 0.341489,-1.997428 h 15.4812995 l -0.2716388,1.548342 1.8467916,-1.5367 H 15.417135 l -0.34043,1.985786 z"
         style="fill:#f3601c;fill-opacity:1;fill-rule:nonzero;stroke:none;stroke-width:0.35277778"
         id="path22585"
         inkscape:connector-curvature="0" />
      <path
         d="m 16.666886,8.6498719 h 0.03881 c 0.04551,0 0.0822,-0.015169 0.0822,-0.051858 0,-0.032456 -0.02364,-0.053975 -0.0755,-0.053975 -0.02187,0 -0.03704,0.00176 -0.04551,0.00423 z m -0.0021,0.2014361 h -0.0822 V 8.4960608 c 0.03246,-0.00635 0.07796,-0.010583 0.136172,-0.010583 0.06703,0 0.09737,0.010583 0.123473,0.025753 0.0194,0.01517 0.03457,0.043392 0.03457,0.077964 0,0.039158 -0.03034,0.069497 -0.07373,0.082197 v 0.00459 c 0.03493,0.0127 0.05433,0.038806 0.06526,0.086431 0.01058,0.054328 0.01729,0.075847 0.02575,0.0889 h -0.08855 c -0.01094,-0.013053 -0.01764,-0.045508 -0.02822,-0.086783 -0.0063,-0.038806 -0.02822,-0.056092 -0.07373,-0.056092 h -0.03881 z M 16.446047,8.6650413 c 0,0.1580445 0.11677,0.2836334 0.276931,0.2836334 0.155927,0 0.27058,-0.1255889 0.27058,-0.2815167 0,-0.1580444 -0.114653,-0.28575 -0.272697,-0.28575 -0.158044,0 -0.274814,0.1277056 -0.274814,0.2836333 m 0.638528,0 c 0,0.2014362 -0.158045,0.3591278 -0.363714,0.3591278 -0.203553,0 -0.365478,-0.1576916 -0.365478,-0.3591278 0,-0.19685 0.161925,-0.3548944 0.365478,-0.3548944 0.205669,0 0.363714,0.1580444 0.363714,0.3548944"
         style="fill:#f3601c;fill-opacity:1;fill-rule:nonzero;stroke:none;stroke-width:0.35277778"
         id="path22589"
         inkscape:connector-curvature="0" />
    </g>
  </g>
</svg>
