<?xml version="1.0" encoding="UTF-8" standalone="no"?>
<!-- Created with Inkscape (http://www.inkscape.org/) -->

<svg
   xmlns:dc="http://purl.org/dc/elements/1.1/"
   xmlns:cc="http://creativecommons.org/ns#"
   xmlns:rdf="http://www.w3.org/1999/02/22-rdf-syntax-ns#"
   xmlns:svg="http://www.w3.org/2000/svg"
   xmlns="http://www.w3.org/2000/svg"
   xmlns:sodipodi="http://sodipodi.sourceforge.net/DTD/sodipodi-0.dtd"
   xmlns:inkscape="http://www.inkscape.org/namespaces/inkscape"
   width="159.02078"
   height="64.318581"
   viewBox="0 0 42.074249 17.017624"
   version="1.1"
   id="svg23674"
   inkscape:version="0.92.0 r15299"
   sodipodi:docname="tql.svg">
  <defs
     id="defs23668">
    <clipPath
       id="clipPath23128"
       clipPathUnits="userSpaceOnUse">
      <path
         inkscape:connector-curvature="0"
         id="path23126"
         d="M 0,0 H 612 V 792 H 0 Z" />
    </clipPath>
    <clipPath
       id="clipPath23112"
       clipPathUnits="userSpaceOnUse">
      <path
         inkscape:connector-curvature="0"
         id="path23110"
         d="M 0,0 H 612 V 792 H 0 Z" />
    </clipPath>
    <clipPath
       id="clipPath23092"
       clipPathUnits="userSpaceOnUse">
      <path
         inkscape:connector-curvature="0"
         id="path23090"
         d="M 0,0 H 612 V 792 H 0 Z" />
    </clipPath>
    <clipPath
       id="clipPath23074"
       clipPathUnits="userSpaceOnUse">
      <path
         inkscape:connector-curvature="0"
         id="path23072"
         d="M 0,0 H 612 V 792 H 0 Z" />
    </clipPath>
    <clipPath
       id="clipPath23056"
       clipPathUnits="userSpaceOnUse">
      <path
         inkscape:connector-curvature="0"
         id="path23054"
         d="M 0,0 H 612 V 792 H 0 Z" />
    </clipPath>
    <clipPath
       id="clipPath23018"
       clipPathUnits="userSpaceOnUse">
      <path
         inkscape:connector-curvature="0"
         id="path23016"
         d="M 0,0 H 612 V 792 H 0 Z" />
    </clipPath>
    <clipPath
       id="clipPath22994"
       clipPathUnits="userSpaceOnUse">
      <path
         inkscape:connector-curvature="0"
         id="path22992"
         d="M 0,0 H 612 V 792 H 0 Z" />
    </clipPath>
  </defs>
  <sodipodi:namedview
     id="base"
     pagecolor="#ffffff"
     bordercolor="#666666"
     borderopacity="1.0"
     inkscape:pageopacity="0.0"
     inkscape:pageshadow="2"
     inkscape:zoom="5.6764689"
     inkscape:cx="79.010386"
     inkscape:cy="31.659285"
     inkscape:document-units="mm"
     inkscape:current-layer="layer1"
     showgrid="false"
     fit-margin-top="0"
     fit-margin-left="0"
     fit-margin-right="0"
     fit-margin-bottom="0"
     units="px"
     inkscape:window-width="1280"
     inkscape:window-height="744"
     inkscape:window-x="-4"
     inkscape:window-y="-4"
     inkscape:window-maximized="1" />
  <metadata
     id="metadata23671">
    <rdf:RDF>
      <cc:Work
         rdf:about="">
        <dc:format>image/svg+xml</dc:format>
        <dc:type
           rdf:resource="http://purl.org/dc/dcmitype/StillImage" />
        <dc:title></dc:title>
      </cc:Work>
    </rdf:RDF>
  </metadata>
  <g
     inkscape:label="Layer 1"
     inkscape:groupmode="layer"
     id="layer1"
     transform="translate(-60.738026,-183.28152)">
    <g
       id="g23964"
       transform="translate(0.13229235,-0.13228689)">
      <path
         d="m 61.9755,198.51993 h -0.650522 v -0.33408 h 1.664758 v 0.33408 h -0.650875 v 1.71767 H 61.9755 Z"
         style="fill:#000000;fill-opacity:1;fill-rule:nonzero;stroke:none;stroke-width:0.35277778"
         id="path22986"
         inkscape:connector-curvature="0" />
      <path
         d="m 63.168411,199.21742 v -0.006 c 0,-0.5775 0.445558,-1.06116 1.075972,-1.06116 0.630061,0 1.069622,0.47766 1.069622,1.05516 v 0.006 c 0,0.57714 -0.445205,1.0608 -1.075619,1.0608 -0.630061,0 -1.069975,-0.47766 -1.069975,-1.05516 m 1.767769,0 v -0.006 c 0,-0.399 -0.290336,-0.7299 -0.697794,-0.7299 -0.407458,0 -0.691797,0.32526 -0.691797,0.7239 v 0.006 c 0,0.39828 0.290336,0.72707 0.697794,0.72707 0.407106,0 0.691797,-0.32279 0.691797,-0.72143"
         style="fill:#000000;fill-opacity:1;fill-rule:nonzero;stroke:none;stroke-width:0.35277778"
         id="path22998"
         inkscape:connector-curvature="0" />
      <path
         d="m 66.1436,198.51993 h -0.650875 v -0.33408 h 1.665111 v 0.33408 h -0.650875 v 1.71767 H 66.1436 Z"
         style="fill:#000000;fill-opacity:1;fill-rule:nonzero;stroke:none;stroke-width:0.35277778"
         id="path23002"
         inkscape:connector-curvature="0" />
      <path
         d="m 68.001859,198.17115 h 0.334081 l 0.902758,2.06657 h -0.381 l -0.208139,-0.49565 H 67.67942 l -0.210961,0.49565 h -0.369358 z m 0.515761,1.2513 -0.354542,-0.82056 -0.351719,0.82056 z"
         style="fill:#000000;fill-opacity:1;fill-rule:nonzero;stroke:none;stroke-width:0.35277778"
         id="path23006"
         inkscape:connector-curvature="0" />
      <path
         d="m 69.590521,198.1857 h 0.360539 v 1.72332 h 1.078794 v 0.32879 h -1.439333 z"
         style="fill:#000000;fill-opacity:1;fill-rule:nonzero;stroke:none;stroke-width:0.35277778"
         id="path23010"
         inkscape:connector-curvature="0" />
      <path
         d="m 74.133838,200.29914 -0.246592,-0.22013 c -0.172508,0.12029 -0.383822,0.19367 -0.624064,0.19367 -0.630413,0 -1.069975,-0.47766 -1.069975,-1.05516 v -0.006 c 0,-0.5775 0.445559,-1.06151 1.07562,-1.06151 0.630414,0 1.069975,0.47801 1.069975,1.05551 v 0.006 c 0,0.23142 -0.0762,0.4512 -0.208139,0.63006 l 0.234597,0.19967 z m -0.510117,-0.45438 -0.354894,-0.30198 0.231775,-0.26352 0.360186,0.32808 c 0.06491,-0.11147 0.09984,-0.24306 0.09984,-0.38982 v -0.006 c 0,-0.39899 -0.289983,-0.7299 -0.697442,-0.7299 -0.407458,0 -0.691797,0.32526 -0.691797,0.7239 v 0.006 c 0,0.39829 0.290336,0.72672 0.697442,0.72672 0.135114,0 0.255058,-0.0349 0.354894,-0.0938"
         style="fill:#000000;fill-opacity:1;fill-rule:nonzero;stroke:none;stroke-width:0.35277778"
         id="path23022"
         inkscape:connector-curvature="0" />
      <path
         d="m 74.743262,199.36689 v -1.1811 h 0.360539 v 1.16664 c 0,0.381 0.196497,0.58314 0.518936,0.58314 0.319617,0 0.515761,-0.1905 0.515761,-0.56868 v -1.1811 h 0.360539 v 1.16346 c 0,0.61278 -0.345722,0.92075 -0.882297,0.92075 -0.5334,0 -0.873478,-0.30797 -0.873478,-0.90311"
         style="fill:#000000;fill-opacity:1;fill-rule:nonzero;stroke:none;stroke-width:0.35277778"
         id="path23026"
         inkscape:connector-curvature="0" />
      <path
         d="m 77.648109,198.17115 h 0.334081 l 0.903111,2.06657 h -0.381353 l -0.207786,-0.49565 H 77.32567 l -0.210961,0.49565 h -0.369358 z m 0.515761,1.2513 -0.354542,-0.82056 -0.351719,0.82056 z"
         style="fill:#000000;fill-opacity:1;fill-rule:nonzero;stroke:none;stroke-width:0.35277778"
         id="path23030"
         inkscape:connector-curvature="0" />
      <path
         d="m 79.236879,198.1857 h 0.360186 v 1.72332 h 1.078795 v 0.32879 h -1.438981 z"
         style="fill:#000000;fill-opacity:1;fill-rule:nonzero;stroke:none;stroke-width:0.35277778"
         id="path23034"
         inkscape:connector-curvature="0" />
      <path
         inkscape:connector-curvature="0"
         id="path23036"
         style="fill:#000000;fill-opacity:1;fill-rule:nonzero;stroke:none;stroke-width:0.35277778"
         d="m 81.071672,198.18571 h 0.36054 v 2.05211 h -0.36054 z" />
      <path
         d="m 82.484439,198.51993 h -0.650875 v -0.33408 h 1.665111 v 0.33408 H 82.8478 v 1.71767 h -0.363361 z"
         style="fill:#000000;fill-opacity:1;fill-rule:nonzero;stroke:none;stroke-width:0.35277778"
         id="path23040"
         inkscape:connector-curvature="0" />
      <path
         d="m 84.483419,199.42869 -0.814917,-1.24284 h 0.428273 l 0.571147,0.90558 0.580319,-0.90558 h 0.413456 l -0.814917,1.23402 v 0.81774 h -0.363361 z"
         style="fill:#000000;fill-opacity:1;fill-rule:nonzero;stroke:none;stroke-width:0.35277778"
         id="path23044"
         inkscape:connector-curvature="0" />
      <path
         d="m 86.857374,198.1857 h 0.360539 v 1.72332 h 1.078794 v 0.32879 h -1.439333 z"
         style="fill:#000000;fill-opacity:1;fill-rule:nonzero;stroke:none;stroke-width:0.35277778"
         id="path23048"
         inkscape:connector-curvature="0" />
      <path
         d="m 88.463706,199.21742 v -0.006 c 0,-0.5775 0.445558,-1.06116 1.075619,-1.06116 0.630414,0 1.069975,0.47766 1.069975,1.05516 v 0.006 c 0,0.57714 -0.445558,1.0608 -1.075619,1.0608 -0.630061,0 -1.069975,-0.47766 -1.069975,-1.05516 m 1.767417,0 v -0.006 c 0,-0.399 -0.289984,-0.7299 -0.697442,-0.7299 -0.407458,0 -0.691797,0.32526 -0.691797,0.7239 v 0.006 c 0,0.39828 0.290336,0.72707 0.697441,0.72707 0.407459,0 0.691798,-0.32279 0.691798,-0.72143"
         style="fill:#000000;fill-opacity:1;fill-rule:nonzero;stroke:none;stroke-width:0.35277778"
         id="path23060"
         inkscape:connector-curvature="0" />
      <path
         d="m 90.955023,199.21742 v -0.006 c 0,-0.57468 0.439914,-1.06116 1.058333,-1.06116 0.357717,0 0.577498,0.0995 0.788459,0.27834 l -0.228953,0.2727 c -0.157692,-0.13511 -0.313267,-0.21978 -0.57397,-0.21978 -0.37853,0 -0.665691,0.3309 -0.665691,0.7239 v 0.006 c 0,0.42192 0.278694,0.73271 0.697794,0.73271 0.193322,0 0.369359,-0.0614 0.4953,-0.15557 v -0.38382 h -0.52458 v -0.31362 h 0.873125 v 0.86183 c -0.202142,0.17287 -0.492125,0.31927 -0.855839,0.31927 -0.641703,0 -1.063978,-0.4572 -1.063978,-1.05516"
         style="fill:#000000;fill-opacity:1;fill-rule:nonzero;stroke:none;stroke-width:0.35277778"
         id="path23064"
         inkscape:connector-curvature="0" />
      <path
         inkscape:connector-curvature="0"
         id="path23066"
         style="fill:#000000;fill-opacity:1;fill-rule:nonzero;stroke:none;stroke-width:0.35277778"
         d="m 93.364571,198.18571 h 0.360542 v 2.05211 h -0.360542 z" />
      <path
         d="m 94.135526,199.93871 0.216958,-0.25788 c 0.196498,0.16969 0.395817,0.2667 0.6477,0.2667 0.222956,0 0.363714,-0.10548 0.363714,-0.25823 v -0.006 c 0,-0.1464 -0.0822,-0.22578 -0.463197,-0.31362 -0.437092,-0.10548 -0.683331,-0.23459 -0.683331,-0.61242 v -0.006 c 0,-0.35172 0.293512,-0.59513 0.70097,-0.59513 0.29845,0 0.536222,0.091 0.744361,0.25788 l -0.193675,0.27269 c -0.184503,-0.13758 -0.369358,-0.21131 -0.556683,-0.21131 -0.211314,0 -0.334434,0.10866 -0.334434,0.24342 v 0.006 c 0,0.1584 0.09384,0.2286 0.489656,0.32244 0.433917,0.10548 0.656519,0.26071 0.656519,0.60078 v 0.006 c 0,0.38382 -0.301625,0.61242 -0.732719,0.61242 -0.31362,0 -0.609953,-0.10795 -0.855839,-0.32808"
         style="fill:#000000;fill-opacity:1;fill-rule:nonzero;stroke:none;stroke-width:0.35277778"
         id="path23078"
         inkscape:connector-curvature="0" />
      <path
         d="m 96.609413,198.51993 h -0.650875 v -0.33408 h 1.665111 v 0.33408 h -0.650875 v 1.71767 h -0.363361 z"
         style="fill:#000000;fill-opacity:1;fill-rule:nonzero;stroke:none;stroke-width:0.35277778"
         id="path23082"
         inkscape:connector-curvature="0" />
      <path
         inkscape:connector-curvature="0"
         id="path23084"
         style="fill:#000000;fill-opacity:1;fill-rule:nonzero;stroke:none;stroke-width:0.35277778"
         d="m 98.025122,198.18571 h 0.360529 v 2.05211 h -0.360529 z" />
      <path
         d="m 98.842675,199.21742 v -0.006 c 0,-0.5835 0.436739,-1.06116 1.058333,-1.06116 0.377822,0 0.606782,0.13194 0.802922,0.31926 l -0.23107,0.26706 c -0.16439,-0.1524 -0.34043,-0.25506 -0.575027,-0.25506 -0.389819,0 -0.677333,0.32244 -0.677333,0.7239 v 0.006 c 0,0.40146 0.284692,0.72707 0.677333,0.72707 0.252237,0 0.413457,-0.0998 0.589137,-0.26423 l 0.23178,0.2346 c -0.21414,0.22295 -0.44838,0.36336 -0.832558,0.36336 -0.597959,0 -1.043517,-0.46602 -1.043517,-1.05516"
         style="fill:#000000;fill-opacity:1;fill-rule:nonzero;stroke:none;stroke-width:0.35277778"
         id="path23096"
         inkscape:connector-curvature="0" />
      <path
         d="m 100.95913,199.93871 0.21696,-0.25788 c 0.1965,0.16969 0.39546,0.2667 0.6477,0.2667 0.2226,0 0.36371,-0.10548 0.36371,-0.25823 v -0.006 c 0,-0.1464 -0.0825,-0.22578 -0.46355,-0.31362 -0.43674,-0.10548 -0.68298,-0.23459 -0.68298,-0.61242 v -0.006 c 0,-0.35172 0.29316,-0.59513 0.70062,-0.59513 0.2988,0 0.53658,0.091 0.74436,0.25788 l -0.19297,0.27269 c -0.18485,-0.13758 -0.36971,-0.21131 -0.55703,-0.21131 -0.21132,0 -0.33444,0.10866 -0.33444,0.24342 v 0.006 c 0,0.1584 0.0938,0.2286 0.48966,0.32244 0.43356,0.10548 0.65652,0.26071 0.65652,0.60078 v 0.006 c 0,0.38382 -0.30163,0.61242 -0.73272,0.61242 -0.31362,0 -0.60995,-0.10795 -0.85584,-0.32808"
         style="fill:#000000;fill-opacity:1;fill-rule:nonzero;stroke:none;stroke-width:0.35277778"
         id="path23100"
         inkscape:connector-curvature="0" />
      <path
         d="m 63.929959,186.74525 h -3.191933 v -1.63901 h 8.166805 v 1.63901 h -3.191933 v 8.42574 h -1.782939 z"
         style="fill:#000000;fill-opacity:1;fill-rule:nonzero;stroke:none;stroke-width:0.35277778"
         id="path23104"
         inkscape:connector-curvature="0" />
      <path
         d="m 78.149613,195.47286 -1.207558,-1.07844 c -0.848431,0.58949 -1.883481,0.94897 -3.062464,0.94897 -3.091392,0 -5.247922,-2.3435 -5.247922,-5.17595 v -0.0289 c 0,-2.83246 2.185458,-5.20489 5.276497,-5.20489 3.091391,0 5.247922,2.34351 5.247922,5.17631 v 0.0286 c 0,1.13594 -0.373944,2.21438 -1.020586,3.09139 l 1.150055,0.9779 z m -2.501547,-2.2285 -1.7399,-1.48096 1.135944,-1.29399 1.768475,1.61008 c 0.316442,-0.5461 0.48895,-1.19309 0.48895,-1.91205 v -0.0289 c 0,-1.95545 -1.423458,-3.57999 -3.421944,-3.57999 -1.998839,0 -3.393369,1.59597 -3.393369,3.55141 v 0.0286 c 0,1.95544 1.423458,3.56588 3.421944,3.56588 0.661458,0 1.25095,-0.17251 1.7399,-0.46003"
         style="fill:#000000;fill-opacity:1;fill-rule:nonzero;stroke:none;stroke-width:0.35277778"
         id="path23116"
         inkscape:connector-curvature="0" />
      <path
         d="m 80.723089,185.10637 h 1.768828 v 8.45397 h 5.290961 v 1.61078 h -7.059789 z"
         style="fill:#000000;fill-opacity:1;fill-rule:nonzero;stroke:none;stroke-width:0.35277778"
         id="path23120"
         inkscape:connector-curvature="0" />
      <path
         d="m 96.774057,189.87964 c 1.838325,-0.84137 3.306943,-2.30258 4.150783,-4.11057 -1.414991,-1.7339 -3.743325,-2.60949 -6.067425,-2.05951 -3.028597,0.71578 -4.979458,3.59833 -4.599869,6.61775 2.284942,0.65123 4.602692,0.44204 6.516511,-0.44767"
         style="fill:#0093d0;fill-opacity:1;fill-rule:nonzero;stroke:none;stroke-width:0.35277778"
         id="path23132"
         inkscape:connector-curvature="0" />
      <path
         d="m 102.11857,188.19336 c -0.13088,-0.55351 -0.33373,-1.07068 -0.5969,-1.54481 -0.35278,1.92652 -1.23684,3.64878 -2.517775,4.96817 -1.615369,1.68063 -3.866797,2.71391 -6.324247,2.83315 1.375481,1.00648 3.166533,1.42805 4.955117,1.00471 3.243085,-0.76693 5.250745,-4.01778 4.483805,-7.26122"
         style="fill:#0093d0;fill-opacity:1;fill-rule:nonzero;stroke:none;stroke-width:0.35277778"
         id="path23136"
         inkscape:connector-curvature="0" />
      <path
         d="m 89.406928,191.60575 c -0.02081,-0.0339 -0.04163,-0.0674 -0.06244,-0.10089 0.02081,0.0335 0.04163,0.067 0.06244,0.10089"
         style="fill:#0093d0;fill-opacity:1;fill-rule:nonzero;stroke:none;stroke-width:0.35277778"
         id="path23140"
         inkscape:connector-curvature="0" />
      <path
         d="m 89.585434,191.88984 c -0.01764,-0.0272 -0.03528,-0.0554 -0.05256,-0.0825 0.01729,0.0272 0.03493,0.055 0.05256,0.0825"
         style="fill:#0093d0;fill-opacity:1;fill-rule:nonzero;stroke:none;stroke-width:0.35277778"
         id="path23144"
         inkscape:connector-curvature="0" />
      <path
         d="m 97.869891,190.78222 c 2.237669,-1.56457 3.671359,-4.16595 3.743329,-7.106 v -3.6e-4 l -0.001,-7e-4 c -0.15452,2.90548 -1.670758,5.449 -3.969811,6.92785 -2.287058,1.48978 -5.356577,1.91558 -8.331199,0.84667 h -7.06e-4 c 0.01129,0.0183 0.02293,0.037 0.03422,0.0554 0.02081,0.0335 0.04163,0.067 0.06244,0.10054 0.04163,0.067 0.08326,0.13406 0.125942,0.20144 0.01729,0.0275 0.03457,0.0554 0.05221,0.0829 0.01552,0.024 0.03034,0.048 0.04551,0.072 l 0.0011,3.5e-4 c 2.983441,0.9331 6.012744,0.39511 8.238066,-1.18004"
         style="fill:#0093d0;fill-opacity:1;fill-rule:nonzero;stroke:none;stroke-width:0.35277778"
         id="path23148"
         inkscape:connector-curvature="0" />
    </g>
  </g>
</svg>
