<?xml version="1.0" encoding="UTF-8" standalone="no"?>
<svg
   height="412.07047"
   viewBox="1.116 1.453 179.669 27.605273"
   width="2479.8623"
   version="1.1"
   id="svg3"
   xmlns="http://www.w3.org/2000/svg"
   xmlns:svg="http://www.w3.org/2000/svg">
  <defs
     id="defs3" />
  <path
     d="m 49.564,0.15016324 -42.1530001,0.002 -0.025,0.14 c 0,0 24.7810001,5.08999996 25.2720001,5.17599996 5.694,1.005 5.517,2.104 5.517,2.104 3.99,-0.02 4.48,0.141 5.178,0.723 2.098,1.7519998 -1.312,6.9159998 -1.312,6.9159998 -0.488,0.36 -37.3520001,14.596 -37.3520001,14.596 H 43.257 L 49.563,0.15116324 Z m 8.082,0 -1.601,7.53699996 c -0.574,2.6039998 1.182,3.7829998 4.107,3.7829998 2.936,0 5.168,-1.18 5.727,-3.7829998 1.628,-7.53699996 -0.018,0 1.628,-7.53699996 h -2.455 c 0,0 -1.24,5.79799996 -1.455,6.79099996 -0.37,1.739 -1.287,2.777 -3.086,2.777 -1.878,-0.015 -2.264,-1.055 -1.879,-2.777 -0.043,0.174 1.461,-6.79099996 1.461,-6.79099996 z m 12.213,0 -2.36,11.11899976 h 2.175 L 71.39,3.0171632 h 0.05 l 2.745,8.2519998 h 3.086 L 79.627,0.15016324 h -2.17 L 75.705,8.4941632 h -0.03 L 73.037,0.15016324 Z m 12.121,0 -2.353,11.11899976 h 2.449 L 84.433,0.15016324 Z m 4.096,0 -0.389,1.76999996 h 3.46 L 87.16,11.270163 h 2.451 l 1.985,-9.3499998 h 3.457 l 0.373,-1.76999996 z m 10.996,0 -2.373,11.11899976 h 8.058 l 0.375,-1.7699998 h -5.595 l 0.636,-3.039 h 4.883 l 0.354,-1.642 h -4.881 l 0.617,-2.899 h 5.602 l 0.369,-1.76999996 h -8.046 z m 9.832,0 -2.354,11.11899976 h 5.022 c 3.102,0 6.08,-2.0459998 6.748,-6.0469998 0.477,-2.837 -0.655,-5.07199996 -4.02,-5.07199996 z m 18.432,0 c -2.881,0 -4.314,1.02299996 -4.527,2.62299996 -0.357,2.664 4.357,4.247 4.002,5.842 -0.22,0.932 -1.365,0.885 -2.295,0.885 h -3.022 l -0.375,1.7689998 h 3.754 c 3.071,0 4.404,-1.102 4.65,-2.6229998 0.448,-2.729 -4.34,-4.138 -3.966,-5.904 0.122,-0.544 0.725,-0.823 2.058,-0.823 h 2.621 l 0.385,-1.76899996 z m 4.545,0 -0.385,1.76999996 h 3.457 l -1.984,9.3499998 h 2.449 l 1.984,-9.3499998 h 3.46 l 0.372,-1.76999996 z m 11.949,0 -6.371,11.11899976 h 2.45 l 4.884,-8.9139998 0.978,7.144 h -3.508 l -0.959,1.7699998 h 7.192 L 144.761,0.14816324 h -2.931 z m 5.636,0 -0.386,1.76999996 h 3.457 l -1.985,9.3499998 h 2.45 l 1.984,-9.3499998 h 3.455 l 0.375,-1.76999996 z m 10.984,0 -2.375,11.11899976 h 8.063 l 0.375,-1.7699998 h -5.602 l 0.637,-3.039 h 4.885 l 0.355,-1.642 h -4.882 l 0.62,-2.899 h 5.596 l 0.373,-1.76999996 h -8.045 z m 13.436,0 c -2.885,0 -4.311,1.02299996 -4.529,2.62299996 -0.356,2.664 4.357,4.247 4.002,5.842 -0.219,0.932 -1.367,0.885 -2.297,0.885 h -3.023 l -0.371,1.7689998 h 3.75 c 3.071,0 4.406,-1.102 4.656,-2.6229998 0.446,-2.729 -4.343,-4.138 -3.973,-5.904 0.125,-0.544 0.731,-0.823 2.065,-0.823 h 2.615 l 0.393,-1.76899996 z M 108.997,1.9201632 h 2.5 c 2.03,0 2.755,1.505 2.446,3.271 -0.433,2.497 -2.03,4.309 -4.803,4.309 h -1.752 z m -81.338,5.086 c -1.117,-0.008 -1.904,0.008 -1.994,0.002 H 5.9579999 l -4.842,22.8059998 c 0,0 14.8310001,-7.278 16.6450001,-8.21 3.717,-1.91 8.856,-4.432 13.605,-6.05 0.905,-0.306 4.782,-1.501 7.04,-1.904 0.875,-0.156 1.247,-0.305 1.236,-0.468 -0.034,-0.468 -0.914,-0.499 -2.404,-0.426 -4.547,0.214 -13.258,3.683 -15.766,5.006 L 18.641,8.9881632 h 18.087 c 0.61,-1.706 -5.717,-1.954 -9.07,-1.98 z m 9.59,2.114 c -0.131,0 -0.244,0.088 -0.396,0.295 -0.139,0.178 -0.252,0.299 -0.612,0.48 -0.558,0.2749998 -2.019,0.4289998 -2.703,0.4859998 -0.656,0.055 -0.834,0.122 -0.845,0.375 -0.007,0.227 0.097,0.356 1.039,0.356 2.166,0 6.065,-0.817 7.24,-0.443 0.62,0.198 0.122,1.303 -0.387,2.756 -0.197,0.56 0.19,0.521 0.414,0.275 0.225,-0.248 1.236,-2.099 1.346,-3.041 0.156,-1.3389998 -0.992,-1.5399998 -2.576,-1.5399998 h -2.52 z m 32.047,9.3649998 c -3.44,0 -6.308,1.798 -7.148,5.752 -0.664,3.162 1.26,5.766 4.685,5.766 3.474,0 6.264,-1.719 7.133,-5.766 0.711,-3.301 -1.259,-5.752 -4.67,-5.752 z m 98.146,0 c -3.412,0 -6.696,1.766 -7.535,5.752 -0.851,3.984 1.674,5.766 5.088,5.766 0.944,0 1.849,-0.107 2.746,-0.245 l 0.604,-1.912 c -0.883,0.22 -1.817,0.391 -2.98,0.391 -2.218,0 -3.47,-1.488 -2.944,-4 0.527,-2.513 2.417,-3.986 4.632,-3.986 1.135,0 1.908,0.155 2.606,0.357 l 0.219,-1.875 c -0.789,-0.139 -1.61,-0.248 -2.436,-0.248 z m -87.484,0.2 c -2.886,0 -4.315,1.023 -4.53,2.622 -0.357,2.668 4.355,4.248 4.003,5.846 -0.218,0.93 -1.367,0.883 -2.297,0.883 h -3.023 l -0.375,1.767 h 3.756 c 3.07,0 4.402,-1.1 4.65,-2.62 0.45,-2.728 -4.34,-4.14 -3.969,-5.907 0.124,-0.544 0.73,-0.822 2.067,-0.822 h 2.615 l 0.39,-1.77 h -3.287 z m 4.543,0 -0.386,1.769 h 3.457 l -1.985,9.35 h 2.45 l 1.988,-9.35 h 3.455 l 0.369,-1.77 h -9.348 z m 35.79,0 c -2.887,0 -4.315,1.023 -4.53,2.622 -0.359,2.668 4.354,4.248 4.002,5.846 -0.218,0.93 -1.367,0.883 -2.297,0.883 h -3.023 l -0.373,1.767 h 3.754 c 3.068,0 4.402,-1.1 4.65,-2.62 0.45,-2.728 -4.339,-4.14 -3.973,-5.907 0.125,-0.544 0.733,-0.822 2.067,-0.822 h 2.619 l 0.386,-1.77 h -3.283 z m 5.405,0 -2.373,11.118 h 8.065 l 0.371,-1.767 h -5.598 l 0.637,-3.041 h 4.885 l 0.355,-1.645 h -4.882 l 0.617,-2.896 h 5.6 l 0.368,-1.77 h -8.044 z m 9.827,0 -2.358,11.118 h 2.45 l 1.984,-9.365 h 2.201 c 1.364,0 1.486,0.758 1.348,1.457 -0.262,1.317 -1.41,1.844 -2.666,1.844 -0.233,0 -0.623,0.016 -0.932,-0.031 l 2.018,6.095 h 2.681 l -1.83,-4.793 c 1.629,-0.231 3.027,-1.393 3.178,-3.488 0.142,-1.861 -0.726,-2.838 -2.895,-2.838 h -5.18 z m 36.334,0 -2.368,11.118 h 8.063 l 0.371,-1.767 h -5.596 l 0.635,-3.041 h 4.885 l 0.355,-1.645 h -4.882 l 0.62,-2.896 h 5.596 l 0.371,-1.77 h -8.05 z m -118.14,0.001 -2.358,11.117 h 2.451 l 1.985,-9.35 h 1.998 c 0.902,0 1.519,0.449 1.258,1.659 -0.138,0.666 -0.745,1.814 -2.42,1.814 -0.371,0 -0.774,-0.047 -1.082,-0.078 l 0.123,1.615 c 0.355,0.032 0.775,0.09 1.164,0.09 2.201,0 4.139,-1.27 4.59,-3.38 0.293,-1.394 0.014,-3.487 -2.389,-3.487 z m 42.75,0 -6.368,11.117 h 2.446 l 4.888,-8.916 0.973,7.149 h -3.502 l -0.96,1.767 h 7.19 l -1.732,-11.117 z m 8.302,0 -2.355,11.117 h 7.521 l 0.387,-1.767 h -5.07 l 1.984,-9.35 z m 40.13,0 1.673,11.117 h 2.897 l 6.33,-11.117 h -2.42 l -4.883,8.918 -1.148,-8.918 h -2.45 z m 12.376,0 -2.355,11.117 h 2.45 l 2.356,-11.117 h -2.45 z m -88.366,1.565 c 2.264,0 3.025,1.735 2.545,3.986 -0.531,2.513 -2.018,4 -4.234,4 -2.296,0 -3.056,-1.845 -2.576,-4 0.573,-2.512 2.05,-3.986 4.265,-3.986 z"
     fill="#15569c"
     id="path2" />
  <path
     d="m 54.588,14.568163 -0.173,0.825 h 126.2 l 0.17,-0.825 H 54.597 Z"
     fill="#ed192d"
     id="path3" />
</svg>
